<svg id="Capa_1" enable-background="new 0 0 512 512" height="512" viewBox="0 0 512 512" width="512" xmlns="http://www.w3.org/2000/svg"><g><g><g fill="#fed402"><circle cx="176.39" cy="63.836" r="16"/><circle cx="335.61" cy="448.228" r="16"/></g></g><g><g fill="#fed402"><circle cx="63.804" cy="176.422" r="16"/><circle cx="448.196" cy="335.642" r="16"/></g></g><g><g fill="#fed402"><circle cx="63.804" cy="335.642" r="16"/><circle cx="448.196" cy="176.422" r="16"/></g></g><g><g fill="#fed402"><circle cx="176.39" cy="448.228" r="16"/><circle cx="335.61" cy="63.836" r="16"/></g></g><circle cx="256" cy="256.001" fill="#fed402" r="160.001"/><path d="m147.509 256.001c0-79.597 58.133-145.619 134.252-157.938-8.385-1.357-16.992-2.063-25.761-2.063-88.366 0-160.001 71.635-160.001 160.001s71.635 160 160.001 160c8.769 0 17.37-.705 25.755-2.062-76.119-12.319-134.246-78.341-134.246-157.938z" fill="#fac600"/><g><g fill="#fed402"><path d="m255.531 0h.938c8.578 0 15.531 6.954 15.531 15.531v32.938c0 8.578-6.953 15.531-15.531 15.531h-.938c-8.578 0-15.531-6.953-15.531-15.531v-32.938c0-8.577 6.953-15.531 15.531-15.531z"/><path d="m255.531 448h.938c8.578 0 15.531 6.954 15.531 15.531v32.938c0 8.578-6.954 15.531-15.531 15.531h-.938c-8.578 0-15.531-6.954-15.531-15.531v-32.938c0-8.578 6.953-15.531 15.531-15.531z"/></g></g><g><g fill="#fed402"><path d="m74.649 75.312.663-.663c6.065-6.065 15.899-6.065 21.964 0l23.291 23.291c6.065 6.065 6.065 15.899 0 21.964l-.663.663c-6.065 6.065-15.899 6.065-21.964 0l-23.291-23.29c-6.065-6.066-6.065-15.899 0-21.965z"/><path d="m391.433 392.096.663-.663c6.065-6.065 15.899-6.065 21.964 0l23.291 23.291c6.065 6.065 6.065 15.899 0 21.964l-.663.663c-6.065 6.065-15.899 6.065-21.964 0l-23.291-23.291c-6.065-6.065-6.065-15.899 0-21.964z"/></g></g><g><g fill="#fed402"><path d="m0 256.469v-.938c0-8.578 6.954-15.531 15.531-15.531h32.938c8.578 0 15.531 6.953 15.531 15.531v.938c0 8.578-6.953 15.531-15.531 15.531h-32.938c-8.577 0-15.531-6.953-15.531-15.531z"/><path d="m448 256.469v-.938c0-8.578 6.954-15.531 15.531-15.531h32.938c8.578 0 15.531 6.954 15.531 15.531v.938c0 8.578-6.954 15.531-15.531 15.531h-32.938c-8.578 0-15.531-6.953-15.531-15.531z"/></g></g><g><g fill="#fed402"><path d="m75.312 437.351-.663-.663c-6.065-6.065-6.065-15.899 0-21.964l23.291-23.291c6.065-6.065 15.899-6.065 21.964 0l.663.663c6.065 6.065 6.065 15.899 0 21.964l-23.291 23.291c-6.065 6.065-15.898 6.065-21.964 0z"/><path d="m392.096 120.567-.663-.663c-6.065-6.065-6.065-15.899 0-21.964l23.291-23.291c6.065-6.065 15.899-6.065 21.964 0l.663.663c6.065 6.065 6.065 15.899 0 21.964l-23.291 23.291c-6.065 6.065-15.899 6.065-21.964 0z"/></g></g></g></svg>