<svg id="Capa_1" enable-background="new 0 0 512 512" height="512" viewBox="0 0 512 512" width="512" xmlns="http://www.w3.org/2000/svg"><g><path d="m379.076 174.768h-17.225c-14.648-19.5-37.378-32.583-63.216-34.274-19.32-40.85-60.908-69.11-109.096-69.11s-89.776 28.259-109.096 69.11c-44.919 2.94-80.443 40.305-80.443 85.968 0 47.581 38.572 86.154 86.154 86.154h292.923c38.066 0 68.924-30.858 68.924-68.924-.001-38.066-30.859-68.924-68.925-68.924z" fill="#c4e2ff"/><path d="m379.076 312.615c23.818 0 44.813-12.082 57.193-30.451h-.791c-15.802-17.173-36.728-28.671-59.618-32.779-11.191-19.367-26.842-35.841-45.766-48.069-22.814-14.742-49.287-22.534-76.556-22.534s-53.742 7.792-76.556 22.534c-18.924 12.228-34.574 28.702-45.766 48.068-33.628 6.039-61.651 27.873-76.461 57.304 9.732 3.812 20.315 5.928 31.399 5.928h292.922z" fill="#b3dafe"/><path d="m30.906 226.462c0-45.662 35.524-83.027 80.442-85.967 17.22-36.41 52.136-62.819 93.643-68.129-5.062-.648-10.215-.981-15.453-.981-48.189 0-89.776 28.259-109.096 69.11-44.918 2.939-80.442 40.304-80.442 85.967 0 47.581 38.572 86.154 86.154 86.154h30.906c-47.582-.001-86.154-38.573-86.154-86.154z" fill="#b3dafe"/><path d="m443.076 302.768h-17.225c-14.648-19.5-37.378-32.583-63.216-34.274-19.32-40.85-60.908-69.11-109.096-69.11s-89.776 28.259-109.096 69.11c-44.919 2.94-80.443 40.305-80.443 85.968 0 47.581 38.572 86.154 86.154 86.154h292.923c38.066 0 68.924-30.858 68.924-68.924-.001-38.066-30.859-68.924-68.925-68.924z" fill="#eaf6ff"/><path d="m94.906 354.462c0-45.662 35.524-83.027 80.442-85.967 17.22-36.41 52.142-62.818 93.649-68.128-5.062-.648-10.221-.981-15.459-.981-48.189 0-89.776 28.26-109.096 69.11-44.918 2.938-80.442 40.303-80.442 85.966 0 47.581 38.572 86.154 86.154 86.154h30.906c-47.582-.001-86.154-38.573-86.154-86.154z" fill="#d8ecfe"/><path d="m144.338 167.514c1.523 1.646 3.596 2.48 5.674 2.48 1.876 0 3.759-.68 5.245-2.054 3.133-2.898 3.323-7.786.426-10.919-16.96-18.334-40.898-29.619-66.672-31.677-3.193 4.806-6.057 9.85-8.546 15.107 24.687.005 47.968 9.868 63.873 27.063z" fill="#b3dafe"/><g fill="#d8ecfe"><path d="m228.583 347.137c0 4.267 3.459 7.726 7.726 7.726s7.726-3.459 7.726-7.726c0-25.223-10.337-48.825-29.106-66.458-16.753-15.739-38.603-25.116-62.219-26.899-3.085 4.687-5.852 9.602-8.269 14.715-.625.041-1.241.113-1.862.167.597.148 1.218.235 1.862.235 47.183 0 84.142 34.367 84.142 78.24z"/><path d="m381.88 380.321c0-4.267-3.459-7.726-7.726-7.726s-7.726 3.459-7.726 7.726c0 24.453 11.523 46.25 29.409 60.295h36.841c-28.805-4.955-50.798-30.097-50.798-60.295z"/><path d="m299.582 280.134c-2.914 3.118-2.749 8.007.369 10.921 1.49 1.392 3.384 2.082 5.274 2.082 2.065 0 4.126-.823 5.647-2.451 13.352-14.288 31.47-22.156 51.016-22.156.252 0 .5-.014.745-.038-2.474-5.231-5.319-10.253-8.491-15.038-20.707 1.908-40.263 11.382-54.56 26.68z"/></g></g></svg>