<svg id="Capa_1" enable-background="new 0 0 512 512" height="512" viewBox="0 0 512 512" width="512" xmlns="http://www.w3.org/2000/svg"><g><path d="m465.989 340.284c-10.257-5.922-22.425-5.512-31.999.002l-45.648-26.355 24.785-14.31c7.653-4.419 10.275-14.205 5.857-21.858-4.419-7.653-14.205-10.275-21.858-5.857l-40.787 23.548-36.089-20.836v-37.236l36.089-20.836 40.787 23.548c7.653 4.419 17.44 1.796 21.858-5.857 4.419-7.653 1.796-17.439-5.857-21.858l-24.785-14.31 45.648-26.355c9.574 5.515 21.742 5.924 31.999.002 15.306-8.837 20.551-28.41 11.714-43.716-8.837-15.307-28.41-20.551-43.716-11.714-10.256 5.922-15.986 16.664-15.997 27.713l-45.648 26.355v-28.619c0-8.837-7.164-16.001-16.001-16.001-8.837 0-16.001 7.164-16.001 16.001v47.096l-36.108 20.847-32.229-18.607v-41.653l40.786-23.548c7.653-4.419 10.276-14.205 5.857-21.858-4.419-7.653-14.205-10.275-21.858-5.857l-24.785 14.31v-52.752c9.563-5.534 16.001-15.867 16.001-27.711-.001-17.674-14.329-32.002-32.004-32.002s-32.003 14.328-32.003 32.003c0 11.843 6.438 22.177 16.001 27.711v52.751l-24.785-14.31c-7.653-4.419-17.44-1.796-21.858 5.857-4.419 7.653-1.796 17.44 5.857 21.858l40.787 23.548v41.653l-32.229 18.607-36.072-20.826v-47.096c0-8.837-7.164-16.001-16.001-16.001-8.837 0-16.001 7.164-16.001 16.001v28.619l-45.683-26.375c-.013-11.05-5.742-21.792-15.999-27.714-15.307-8.837-34.879-3.593-43.716 11.714s-3.593 34.879 11.714 43.716c10.257 5.922 22.425 5.512 31.999-.002l45.684 26.375-24.785 14.31c-7.653 4.419-10.276 14.205-5.857 21.858 4.419 7.653 14.205 10.275 21.858 5.857l40.787-23.548 36.054 20.816v37.236l-36.054 20.816-40.787-23.548c-7.653-4.419-17.44-1.796-21.858 5.857-4.418 7.653-1.796 17.439 5.857 21.858l24.785 14.31-45.685 26.375c-9.574-5.515-21.742-5.924-31.999-.002-15.306 8.837-20.551 28.409-11.713 43.716s28.41 20.551 43.716 11.714c10.257-5.922 15.986-16.664 15.997-27.713l45.683-26.375v28.62c0 8.837 7.164 16.001 16.001 16.001 8.837 0 16.001-7.164 16.001-16.001v-47.096l36.036-20.805 32.265 18.627v41.653l-40.787 23.548c-7.653 4.419-10.275 14.205-5.857 21.858 4.419 7.653 14.205 10.275 21.858 5.857l24.785-14.31v52.71c-9.563 5.534-16.001 15.867-16.001 27.711.002 17.673 14.33 32.001 32.005 32.001s32.003-14.328 32.003-32.003c0-11.843-6.438-22.177-16.001-27.711v-52.71l24.785 14.31c7.653 4.419 17.439 1.796 21.858-5.857 4.418-7.653 1.796-17.44-5.857-21.858l-40.786-23.548v-41.653l32.265-18.627 36.072 20.826v47.096c0 8.837 7.164 16.001 16.001 16.001 8.837 0 16.001-7.164 16.001-16.001v-28.62l45.648 26.355c.011 11.049 5.741 21.791 15.997 27.713 15.307 8.837 34.879 3.593 43.716-11.714 8.838-15.306 3.593-34.878-11.713-43.715zm-19.865-202.974c3.696-2.134 8.422-.868 10.555 2.828 2.134 3.696.868 8.422-2.828 10.555-3.696 2.134-8.422.867-10.555-2.828-2.134-3.696-.868-8.422 2.828-10.555zm-377.42 10.555c-2.134 3.696-6.86 4.962-10.555 2.828-3.696-2.134-4.962-6.86-2.828-10.555 2.134-3.696 6.86-4.962 10.555-2.828 3.696 2.133 4.962 6.859 2.828 10.555zm-2.828 226.826c-3.696 2.134-8.422.867-10.555-2.828-2.134-3.696-.868-8.422 2.828-10.555 3.696-2.134 8.422-.868 10.555 2.828 2.134 3.695.868 8.421-2.828 10.555zm182.397-342.689c0-4.267 3.46-7.727 7.727-7.727 4.268 0 7.727 3.459 7.727 7.727 0 4.267-3.459 7.727-7.727 7.727-4.267.001-7.727-3.459-7.727-7.727zm15.454 447.995c0 4.267-3.459 7.727-7.727 7.727-4.267 0-7.727-3.46-7.727-7.727 0-4.267 3.46-7.727 7.727-7.727 4.268 0 7.727 3.46 7.727 7.727zm24.276-205.5-32.003 18.476-32.003-18.476v-36.952l32.003-18.477 32.003 18.476zm168.676 97.365c-2.134 3.696-6.859 4.962-10.555 2.828-3.696-2.134-4.962-6.86-2.828-10.555 2.134-3.696 6.859-4.962 10.555-2.828 3.696 2.134 4.962 6.859 2.828 10.555z" fill="#eaf6ff"/><path d="m312.241 413.887-24.785-14.31v8.922l9.331 5.387c5.033 2.906 10.989 2.766 15.733.154-.089-.048-.191-.102-.279-.153z" fill="#ddf6f9"/><g fill="#d8ecfe"><path d="m199.212 125.869 40.787 23.548v41.653l-24.502 14.146 7.727 4.461 32.229-18.607v-41.653l-40.787-23.548c-7.653-4.419-10.275-14.205-5.857-21.858 1.513-2.621 3.675-4.642 6.146-6.002-7.613-4.207-17.233-1.562-21.6 6.002-4.418 7.653-1.796 17.44 5.857 21.858z"/><path d="m387.795 170.354 45.648-26.355c.011-11.049 5.741-21.791 15.997-27.713 2.651-1.53 5.441-2.635 8.27-3.342-7.759-1.928-16.254-.971-23.724 3.342-10.256 5.922-15.986 16.664-15.997 27.713l-30.194 17.432z"/><path d="m239.999 59.713v43.828l15.454 8.922v-52.75c-9.563-5.534-16.001-15.867-16.001-27.711 0-15.01 10.347-27.603 24.287-31.061-2.476-.613-5.074-.941-7.739-.941-17.675 0-32.003 14.328-32.003 32.003 0 11.843 6.439 22.176 16.002 27.71z"/><path d="m287.456 103.542v8.922l24.785-14.31c.089-.051.198-.101.287-.15-4.744-2.612-10.708-2.756-15.741.15z"/><path d="m319.685 209.677 36.108-20.847v-47.096c0-6.034 3.348-11.286 8.28-14.012-2.291-1.267-4.929-1.989-7.733-1.989-8.837 0-16.001 7.164-16.001 16.001v47.096l-28.381 16.385z"/><path d="m397.126 240.094c5.033 2.906 10.993 2.764 15.738.152-.089-.049-.195-.101-.284-.152l-40.787-23.548-7.727 4.461z"/><path d="m412.862 271.754c-4.744-2.612-10.703-2.753-15.736.153l-33.06 19.087 7.727 4.461 40.787-23.548c.089-.052.193-.104.282-.153z"/><path d="m263.727 223.529 24.276 14.015v36.953l-24.276 14.015 7.727 4.461 32.003-18.476v-36.953l-32.003-18.476z"/><path d="m208.809 408.03c-4.419-7.653-1.796-17.44 5.857-21.858l40.787-23.548v-41.653l-32.265-18.627-7.727 4.461 24.538 14.166v41.653l-40.787 23.548c-7.653 4.419-10.275 14.205-5.857 21.858 4.367 7.565 13.983 10.212 21.596 6.005-2.47-1.36-4.629-3.384-6.142-6.005z"/><path d="m155.149 370.245v-28.62l-15.454 8.922v19.697c0 8.837 7.164 16.001 16.001 16.001 2.803 0 5.443-.724 7.734-1.99-4.931-2.725-8.281-7.976-8.281-14.01z"/><path d="m49.752 384c-8.837-15.307-3.593-34.879 11.714-43.716 2.641-1.525 5.408-2.639 8.226-3.345-7.75-1.922-16.218-.963-23.68 3.345-15.307 8.837-20.552 28.409-11.714 43.716 7.307 12.656 21.968 18.429 35.473 15.055-8.139-2.022-15.495-7.219-20.019-15.055z"/><path d="m239.452 479.997c0-11.843 6.438-22.177 16.001-27.711v-52.71l-15.454 8.922v43.787c-9.563 5.534-16.001 15.867-16.001 27.711-.001 17.676 14.327 32.004 32.002 32.004 2.665 0 5.257-.326 7.732-.94-13.941-3.458-24.28-16.053-24.28-31.063z"/><path d="m449.44 395.714c-10.256-5.922-15.986-16.664-15.997-27.713l-45.648-26.355v8.922l30.194 17.432c.011 11.049 5.741 21.791 15.997 27.713 7.47 4.313 15.964 5.27 23.723 3.342-2.829-.706-5.618-1.811-8.269-3.341z"/><path d="m108.505 277.742c1.513-2.621 3.677-4.642 6.148-6.002-7.613-4.207-17.234-1.563-21.602 6.002-4.418 7.653-1.796 17.439 5.857 21.858l24.785 14.31-39.514 22.813c3.249.7 6.386 1.893 9.285 3.562l45.684-26.375-24.785-14.31c-7.654-4.418-10.276-14.204-5.858-21.858z"/><path d="m355.793 370.266v-47.096l-36.072-20.826-7.727 4.461 28.345 16.365v47.096c0 8.837 7.164 16.001 16.001 16.001 2.803 0 5.445-.725 7.737-1.991-4.932-2.727-8.284-7.977-8.284-14.01z"/><path d="m46.011 171.716c7.462 4.308 15.941 5.264 23.692 3.342-2.818-.706-5.596-1.817-8.238-3.342-15.307-8.837-20.551-28.41-11.714-43.716 4.524-7.836 11.879-13.033 20.018-15.056-13.505-3.374-28.165 2.4-35.472 15.056-8.837 15.307-3.592 34.879 11.714 43.716z"/><path d="m93.051 234.257c4.368 7.565 13.986 10.21 21.599 6.003-2.471-1.36-4.632-3.383-6.145-6.003-4.419-7.653-1.796-17.439 5.857-21.858l24.785-14.31-45.684-26.375c-2.898 1.669-6.036 2.862-9.285 3.562l39.514 22.813-24.785 14.31c-7.652 4.419-10.274 14.205-5.856 21.858z"/><path d="m163.423 290.973 7.727 4.461 36.054-20.816v-37.236l-36.054-20.816-7.727 4.461 28.327 16.355v37.236z"/><path d="m155.149 170.374v-28.619c0-6.034 3.342-11.29 8.274-14.016-2.291-1.267-4.923-1.986-7.726-1.986-8.837 0-16.001 7.164-16.001 16.001v19.697z"/></g></g></svg>