<svg id="Capa_1" enable-background="new 0 0 512 512" height="512" viewBox="0 0 512 512" width="512" xmlns="http://www.w3.org/2000/svg"><g><path d="m190.632 276.32c0 49.942-35.894 90.429-80.171 90.429s-80.171-40.486-80.171-90.429c0-54.146 56.08-130.706 74.433-154.313 2.911-3.744 8.564-3.744 11.475 0 18.354 23.607 74.434 100.168 74.434 154.313z" fill="#c4e2ff"/><path d="m50.29 276.32c0-50.449 48.678-120.348 70.171-148.753-1.575-2.081-3.009-3.948-4.262-5.56-2.911-3.744-8.564-3.744-11.475 0-18.354 23.607-74.434 100.168-74.434 154.313 0 49.942 35.894 90.429 80.171 90.429 3.387 0 6.724-.24 10-.699-39.557-5.552-70.171-43.607-70.171-89.73z" fill="#b3dafe"/><path d="m307.094 98.98c0 31.995-22.995 57.933-51.361 57.933s-51.361-25.938-51.361-57.933c0-32.805 32.132-78.454 45.567-96.105 2.917-3.833 8.673-3.833 11.59 0 13.433 17.651 45.565 63.299 45.565 96.105z" fill="#c4e2ff"/><path d="m224.371 98.98c0-29.746 26.419-70.051 41.361-90.469-1.537-2.1-2.953-3.99-4.205-5.636-2.917-3.833-8.673-3.833-11.59 0-13.434 17.651-45.567 63.3-45.567 96.105 0 31.995 22.995 57.933 51.361 57.933 3.423 0 6.765-.386 10-1.106-23.576-5.25-41.36-28.693-41.36-56.827z" fill="#b3dafe"/><path d="m481.71 384.555c0 70.386-50.587 127.445-112.989 127.445s-112.989-57.059-112.989-127.445c0-78.815 84.31-191.328 107.273-220.511 2.914-3.704 8.517-3.704 11.431 0 22.964 29.182 107.274 141.696 107.274 220.511z" fill="#c4e2ff"/><path d="m275.733 384.555c0-74.522 75.366-179.158 102.989-215.006-1.591-2.065-3.034-3.916-4.284-5.505-2.914-3.704-8.517-3.704-11.431 0-22.963 29.183-107.273 141.697-107.273 220.511 0 70.386 50.587 127.446 112.989 127.446 3.371 0 6.704-.177 10-.502-57.718-5.712-102.99-60.36-102.99-126.944z" fill="#b3dafe"/><g><g><path d="m368.721 487.265c-48.663 0-88.253-46.076-88.253-102.711 0-4.305 3.49-7.795 7.795-7.795s7.795 3.49 7.795 7.795c0 48.039 32.597 87.121 72.664 87.121 4.305 0 7.795 3.49 7.795 7.795s-3.491 7.795-7.796 7.795z" fill="#eaf6ff"/></g></g><g><g><path d="m110.461 342.014c-30.568 0-55.436-29.47-55.436-65.694 0-4.305 3.49-7.795 7.795-7.795s7.795 3.49 7.795 7.795c0 27.628 17.875 50.104 39.847 50.104 4.305 0 7.795 3.49 7.795 7.795s-3.491 7.795-7.796 7.795z" fill="#eaf6ff"/></g></g><g><g><path d="m255.733 132.178c-14.682 0-26.627-14.893-26.627-33.198 0-4.305 3.49-7.795 7.795-7.795s7.795 3.49 7.795 7.795c0 10.078 5.827 17.609 11.037 17.609 4.305 0 7.795 3.49 7.795 7.795 0 4.304-3.49 7.794-7.795 7.794z" fill="#eaf6ff"/></g></g></g></svg>