<svg id="Capa_1" enable-background="new 0 0 512 512" height="512" viewBox="0 0 512 512" width="512" xmlns="http://www.w3.org/2000/svg"><g><path d="m444.101 156.259h-16.969c-14.43-19.21-36.822-32.098-62.277-33.764-19.033-40.243-60.002-68.082-107.474-68.082s-88.442 27.839-107.474 68.082c-44.251 2.896-79.246 39.706-79.246 84.689 0 46.874 37.999 84.873 84.873 84.873h288.568c37.5 0 67.899-30.399 67.899-67.899-.001-37.5-30.4-67.899-67.9-67.899z" fill="#eaf6ff"/><g fill="#d8ecfe"><path d="m101.106 207.184c0-44.983 34.996-81.793 79.246-84.689 16.964-35.869 51.361-61.885 92.251-67.116-4.986-.638-10.063-.966-15.223-.966-47.472 0-88.442 27.839-107.474 68.082-44.251 2.896-79.246 39.706-79.246 84.689 0 46.874 37.999 84.873 84.873 84.873h30.446c-46.874 0-84.873-37.999-84.873-84.873z"/><path d="m232.797 199.638c0 4.204 3.408 7.612 7.612 7.612s7.612-3.408 7.612-7.612c0-24.848-10.183-48.099-28.673-65.47-16.454-15.457-37.896-24.688-61.079-26.485-3.124 4.713-5.925 9.659-8.362 14.811-.159.01-.314.031-.473.042.157.01.313.024.473.024 46.48.001 82.89 33.857 82.89 77.078z"/><path d="m383.815 231.919c0-4.204-3.408-7.612-7.612-7.612s-7.612 3.408-7.612 7.612c0 24.518 11.753 46.335 29.913 60.138h41.576c-31.372-2.079-56.265-28.249-56.265-60.138z"/><path d="m302.74 133.976c-2.87 3.071-2.708 7.888.364 10.758 1.468 1.372 3.333 2.051 5.196 2.051 2.034 0 4.064-.811 5.562-2.414 13.155-14.075 31.003-21.827 50.258-21.827.273 0 .542-.016.807-.044-.024-.002-.048-.004-.072-.006-2.435-5.15-5.235-10.092-8.356-14.803-20.403 1.879-39.672 11.212-53.759 26.285z"/></g><g><g><g><path d="m375.706 457.588c-10.71 0-20.837-4.045-28.621-11.457-8.036-7.652-12.612-17.975-12.883-29.068-.103-4.202 3.22-7.693 7.423-7.795 4.199-.138 7.693 3.22 7.795 7.423.356 14.508 12.441 26.019 26.957 25.667 9.293-.228 17.941-4.061 24.351-10.793s9.815-15.558 9.587-24.851c-.613-25.028-21.427-44.881-46.504-44.279-.062.002-.124.002-.186.002h-261.951c-4.204 0-7.612-3.408-7.612-7.612s3.408-7.612 7.612-7.612h261.862c16.168-.361 31.49 5.56 43.195 16.704 11.728 11.167 18.405 26.233 18.802 42.423.676 27.576-21.208 50.56-48.784 51.235-.347.009-.696.013-1.043.013z" fill="#c4e2ff"/></g><g><path d="m137.745 268.442c-.469 0-.94-.005-1.41-.016h-128.723c-4.204 0-7.612-3.408-7.612-7.612s3.408-7.612 7.612-7.612h128.813c.062 0 .124.001.186.002.376.009.755.014 1.128.014 24.526 0 44.771-19.64 45.376-44.293.47-19.184-14.755-35.174-33.938-35.644-7.047-.171-13.703 2.403-18.794 7.25-5.092 4.848-7.99 11.388-8.163 18.416-.103 4.203-3.604 7.563-7.795 7.423-4.203-.103-7.526-3.593-7.423-7.795.272-11.093 4.847-21.416 12.883-29.068 8.036-7.651 18.55-11.733 29.664-11.444 27.576.675 49.46 23.66 48.784 51.235-.806 32.918-27.842 59.143-60.588 59.144z" fill="#c4e2ff"/></g><g><path d="m278.997 330.408c-.477 0-.95-.005-1.428-.016h-206.909c-4.204 0-7.612-3.408-7.612-7.612s3.408-7.612 7.612-7.612h206.999c.062 0 .124.001.186.002 12.129.279 23.64-4.145 32.423-12.509 8.784-8.363 13.784-19.646 14.081-31.77.228-9.293-3.177-18.119-9.587-24.851s-15.058-10.565-24.351-10.793c-14.511-.306-26.6 11.159-26.957 25.667-.103 4.202-3.547 7.521-7.796 7.422-4.202-.103-7.525-3.593-7.422-7.796.561-22.899 19.615-41.068 42.548-40.511 13.358.327 25.789 5.837 35.003 15.514s14.109 22.363 13.781 35.722c-.396 16.189-7.074 31.255-18.802 42.422-11.36 10.816-26.142 16.72-41.769 16.721z" fill="#c4e2ff"/></g><g><path d="m70.66 362.419h-31.524c-4.204 0-7.612-3.408-7.612-7.612s3.408-7.612 7.612-7.612h31.524c4.204 0 7.612 3.408 7.612 7.612 0 4.205-3.408 7.612-7.612 7.612z" fill="#c4e2ff"/></g><g><path d="m39.136 331.193h-31.524c-4.204 0-7.612-3.408-7.612-7.612s3.408-7.612 7.612-7.612h31.525c4.204 0 7.612 3.408 7.612 7.612s-3.409 7.612-7.613 7.612z" fill="#c4e2ff"/></g></g></g></g></svg>