<svg id="Capa_1" enable-background="new 0 0 512 512" height="512" viewBox="0 0 512 512" width="512" xmlns="http://www.w3.org/2000/svg"><g><path d="m142.236 349.673c0 18.957-13.625 34.325-30.431 34.325-16.807 0-30.431-15.368-30.431-34.325 0-17.696 15.781-41.701 24.615-53.751 2.884-3.934 8.749-3.934 11.633 0 8.832 12.05 24.614 36.055 24.614 53.751z" fill="#eaf6ff"/><path d="m101.373 349.673c0-15.148 11.561-34.911 20.431-47.848-1.492-2.177-2.911-4.167-4.184-5.902-2.884-3.934-8.749-3.934-11.633 0-8.833 12.05-24.615 36.054-24.615 53.751 0 18.957 13.625 34.325 30.431 34.325 3.504 0 6.88-.672 10.013-1.901-11.891-4.669-20.443-17.421-20.443-32.425z" fill="#d8ecfe"/><path d="m430.504 349.673c0 18.957-13.625 34.325-30.431 34.325-16.807 0-30.431-15.368-30.431-34.325 0-17.696 15.781-41.701 24.615-53.751 2.884-3.934 8.749-3.934 11.633 0 8.833 12.05 24.614 36.055 24.614 53.751z" fill="#eaf6ff"/><path d="m389.641 349.673c0-15.148 11.561-34.911 20.431-47.848-1.492-2.177-2.911-4.167-4.184-5.902-2.884-3.934-8.749-3.934-11.633 0-8.833 12.05-24.615 36.054-24.615 53.751 0 18.957 13.625 34.325 30.431 34.325 3.504 0 6.879-.671 10.012-1.901-11.891-4.668-20.442-17.421-20.442-32.425z" fill="#d8ecfe"/><path d="m191.968 477.675c0 18.957-13.625 34.325-30.431 34.325-16.807 0-30.431-15.368-30.431-34.325 0-17.696 15.781-41.701 24.615-53.751 2.884-3.934 8.749-3.934 11.633 0 8.832 12.05 24.614 36.055 24.614 53.751z" fill="#eaf6ff"/><path d="m151.105 477.675c0-15.148 11.561-34.911 20.431-47.848-1.492-2.177-2.911-4.167-4.184-5.902-2.884-3.934-8.749-3.934-11.633 0-8.833 12.05-24.615 36.054-24.615 53.751 0 18.957 13.625 34.325 30.431 34.325 3.504 0 6.88-.672 10.013-1.902-11.891-4.668-20.443-17.42-20.443-32.424z" fill="#d8ecfe"/><path d="m382.48 477.675c0 18.957-13.625 34.325-30.431 34.325s-30.431-15.368-30.431-34.325c0-17.696 15.781-41.701 24.615-53.751 2.884-3.934 8.749-3.934 11.633 0 8.832 12.05 24.614 36.055 24.614 53.751z" fill="#eaf6ff"/><path d="m341.617 477.675c0-15.148 11.561-34.911 20.431-47.848-1.492-2.177-2.911-4.167-4.184-5.902-2.884-3.934-8.749-3.934-11.633 0-8.833 12.05-24.615 36.054-24.615 53.751 0 18.957 13.625 34.325 30.431 34.325 3.504 0 6.88-.672 10.013-1.901-11.892-4.668-20.443-17.421-20.443-32.425z" fill="#d8ecfe"/><path d="m223.984 241.682-28.028 69.645c-1.908 4.741 1.582 9.909 6.693 9.909h44.092c4.7 0 8.145 4.422 6.996 8.979l-21.709 86.106c-1.892 7.504 7.754 12.317 12.612 6.293l97.976-121.482c3.799-4.711.459-11.725-5.593-11.744l-41.486-.134c-5.101-.016-8.574-5.177-6.67-9.909l15.158-37.664-15.042-10.307h-44.385z" fill="#fed402"/><g fill="#fac600"><path d="m215.955 311.328 28.029-69.645 20.614-10.307h-20l-20.614 10.307-28.029 69.645c-1.908 4.741 1.582 9.909 6.693 9.909h20c-5.11-.001-8.601-5.168-6.693-9.909z"/><path d="m273.736 330.215c1.149-4.557-2.296-8.979-6.996-8.979h-20c4.7 0 8.145 4.422 6.996 8.979l-21.709 86.106c-1.892 7.504 7.754 12.317 12.612 6.293l8.439-10.464z"/></g><path d="m411.155 103.436h-17.234c-14.655-19.51-37.396-32.599-63.248-34.291-19.33-40.871-60.939-69.145-109.152-69.145s-89.822 28.274-109.151 69.145c-44.941 2.941-80.483 40.325-80.483 86.01 0 47.606 38.592 86.197 86.197 86.197h293.07c38.085 0 68.958-30.874 68.958-68.958.001-38.085-30.873-68.958-68.957-68.958z" fill="#c4e2ff"/><g fill="#b3dafe"><path d="m62.808 155.155c0-45.685 35.541-83.069 80.483-86.011 17.229-36.429 52.163-62.83 93.691-68.143-5.064-.648-10.221-1.001-15.461-1.001-48.213 0-89.822 28.274-109.151 69.145-44.941 2.941-80.483 40.325-80.483 86.011 0 47.606 38.592 86.197 86.197 86.197h30.921c-47.605 0-86.197-38.592-86.197-86.198z"/><path d="m196.554 147.423c0 4.269 3.461 7.73 7.73 7.73s7.73-3.461 7.73-7.73c0-25.236-10.342-48.85-29.121-66.492-16.7-15.689-38.46-25.061-61.986-26.895-3.19 4.806-6.051 9.85-8.537 15.107 47.206.001 84.184 34.385 84.184 78.28z"/><path d="m349.927 180.691c0-4.269-3.461-7.73-7.73-7.73s-7.73 3.461-7.73 7.73c0 24.66 11.712 46.624 29.853 60.662h38.631c-29.893-4.024-53.024-29.685-53.024-60.662z"/><path d="m267.588 80.796c-2.915 3.119-2.749 8.011.369 10.926 1.491 1.393 3.386 2.083 5.277 2.083 2.066 0 4.127-.823 5.649-2.452 13.359-14.295 31.486-22.168 51.042-22.168.257 0 .512-.014.763-.038-.005 0-.011-.001-.016-.001-2.475-5.233-5.321-10.257-8.494-15.044-20.719 1.908-40.285 11.386-54.59 26.694z"/></g></g></svg>