<svg id="Capa_1" enable-background="new 0 0 512 512" height="512" viewBox="0 0 512 512" width="512" xmlns="http://www.w3.org/2000/svg"><g><circle cx="346.961" cy="239.101" fill="#fed402" r="94.519"/><path d="m346.961 333.62c38.25 0 71.191-22.722 86.067-55.403-10.222-3.871-21.294-5.997-32.856-5.997h-8.668c-16.667-18.325-38.897-30.534-63.218-34.746-11.721-20.501-28.206-37.931-48.179-50.838-2.697-1.743-5.448-3.379-8.238-4.934-12.183 15.914-19.427 35.809-19.427 57.399 0 52.201 42.317 94.519 94.519 94.519z" fill="#fac600"/><path d="m303.154 239.101c0-43.417 29.288-79.994 69.175-91.076-8.07-2.242-16.584-3.443-25.368-3.443-52.201 0-94.519 42.317-94.519 94.519 0 52.201 42.317 94.519 94.519 94.519 8.784 0 17.286-1.203 25.356-3.445-39.887-11.082-69.163-47.657-69.163-91.074z" fill="#fac600"/><g><g><path d="m346.842 120.695c-.005 0-.009 0-.014 0-4.202-.008-7.601-3.42-7.593-7.621l.059-31.505c.008-4.197 3.412-7.593 7.607-7.593h.014c4.202.008 7.601 3.42 7.593 7.621l-.059 31.505c-.008 4.197-3.413 7.593-7.607 7.593z" fill="#fed402"/></g><g><path d="m409.847 137.564c-1.296 0-2.608-.331-3.809-1.027-3.634-2.108-4.872-6.762-2.764-10.397l15.804-27.254c2.109-3.633 6.763-4.871 10.397-2.764 3.634 2.108 4.872 6.762 2.764 10.397l-15.804 27.254c-1.411 2.432-3.964 3.791-6.588 3.791z" fill="#fed402"/></g><g><path d="m455.998 183.679c-2.634 0-5.195-1.369-6.601-3.817-2.094-3.642-.839-8.291 2.804-10.385l27.313-15.701c3.641-2.096 8.292-.839 10.385 2.804 2.094 3.642.839 8.291-2.804 10.385l-27.313 15.701c-1.195.687-2.498 1.013-3.784 1.013z" fill="#fed402"/></g><g><path d="m504.393 246.743c-.005 0-.009 0-.014 0l-31.504-.059c-4.202-.008-7.601-3.42-7.593-7.621.008-4.197 3.412-7.593 7.607-7.593h.014l31.504.059c4.202.008 7.601 3.42 7.593 7.621-.008 4.197-3.412 7.593-7.607 7.593z" fill="#fed402"/></g><g><path d="m283.843 137.594c-2.634 0-5.195-1.369-6.601-3.817l-15.701-27.313c-2.094-3.642-.839-8.291 2.804-10.385 3.641-2.096 8.292-.84 10.385 2.804l15.701 27.313c2.094 3.642.839 8.291-2.804 10.385-1.195.687-2.498 1.013-3.784 1.013z" fill="#fed402"/></g></g><path d="m400.172 292.504h-18.184c-15.463-20.585-39.458-34.396-66.735-36.181-20.395-43.124-64.297-72.956-115.167-72.956s-94.772 29.833-115.167 72.956c-47.419 3.104-84.919 42.548-84.919 90.751 0 50.229 40.719 90.948 90.948 90.948h309.224c40.184 0 72.759-32.575 72.759-72.759 0-40.183-32.575-72.759-72.759-72.759z" fill="#eaf6ff"/><g fill="#d8ecfe"><path d="m30.427 347.074c0-48.203 37.5-87.648 84.919-90.751 18.33-38.758 55.654-66.765 99.954-72.041-4.99-.594-10.064-.915-15.214-.915-50.87 0-94.772 29.832-115.167 72.956-47.419 3.104-84.919 42.548-84.919 90.751 0 50.229 40.719 90.948 90.948 90.948h30.427c-50.229.001-90.948-40.718-90.948-90.948z"/><path d="m174.292 339.41c0 4.202 3.406 7.607 7.607 7.607s7.607-3.405 7.607-7.607c0-26.473-10.851-51.247-30.552-69.757-17.671-16.6-40.737-26.484-65.666-28.294-3.097 4.76-5.891 9.735-8.34 14.907 50.101.014 89.344 36.53 89.344 83.144z"/><path d="m335.021 372.805c0-4.202-3.405-7.607-7.607-7.607s-7.607 3.405-7.607 7.607c0 26.829 13.228 50.613 33.491 65.218h46.874c.274 0 .544-.018.817-.021-.268-.029-.54-.045-.817-.045-35.925 0-65.151-29.227-65.151-65.152z"/><path d="m249.094 269.513c-2.868 3.069-2.705 7.883.364 10.752 1.466 1.371 3.331 2.049 5.192 2.049 2.033 0 4.062-.81 5.559-2.413 14.2-15.196 33.469-23.564 54.257-23.564.262 0 .521-.013.776-.039-2.437-5.151-5.219-10.105-8.298-14.848-21.952 1.871-42.71 11.862-57.85 28.063z"/></g></g></svg>