<svg id="Capa_1" enable-background="new 0 0 512 512" height="512" viewBox="0 0 512 512" width="512" xmlns="http://www.w3.org/2000/svg"><g><path d="m512 187.975c0 35.28-28.61 63.89-63.89 63.89h-271.54c-44.1 0-79.86-35.76-79.86-79.87 0-42.33 32.93-76.96 74.57-79.69 17.91-37.87 56.46-64.06 101.13-64.06 38.48 0 72.42 19.43 92.53 49.02 3.23 4.76 6.11 9.78 8.59 15.02 0 .01.01.01.01.02 23.95 1.57 45.02 13.7 58.6 31.77h15.97c17.64 0 33.61 7.15 45.17 18.72 11.57 11.56 18.72 27.53 18.72 45.18z" fill="#c4e2ff"/><path d="m351.399 168.549h-6.356c-14.657-15.713-33.905-26.293-54.956-30.23-10.473-17.896-25.02-33.126-42.566-44.464-19.363-12.512-41.537-19.666-64.528-20.921-4.524 6.018-8.462 12.498-11.713 19.372-41.639 2.725-74.571 37.365-74.571 79.693 0 44.107 35.756 79.864 79.864 79.864h259.36c-.675-46.053-38.324-83.314-84.534-83.314z" fill="#b3dafe"/><path d="m127.72 171.998c0-42.328 32.93-76.965 74.569-79.69 15.799-33.407 47.681-57.728 85.639-62.995-5.069-.703-10.255-1.069-15.518-1.069-44.67 0-83.22 26.193-101.129 64.061-41.639 2.725-74.571 37.365-74.571 79.693 0 44.107 35.756 79.864 79.864 79.864h31.01c-44.108 0-79.864-35.756-79.864-79.864z" fill="#b3dafe"/><g><g fill="#eaf6ff"><path d="m161.219 391.175c-2.142-3.709-6.883-4.978-10.59-2.838l-16.178 9.34v-18.681c0-4.282-3.471-7.753-7.753-7.753s-7.753 3.47-7.753 7.753v18.681l-16.178-9.34c-3.709-2.141-8.449-.871-10.59 2.838-2.141 3.708-.87 8.449 2.838 10.59l16.178 9.34-16.178 9.34c-3.708 2.141-4.979 6.882-2.838 10.59 1.436 2.487 4.042 3.877 6.721 3.877 1.315 0 2.648-.335 3.869-1.04l16.178-9.34v18.681c0 4.282 3.471 7.753 7.753 7.753s7.753-3.471 7.753-7.753v-18.681l16.178 9.34c1.221.705 2.554 1.04 3.869 1.04 2.679 0 5.285-1.39 6.721-3.877 2.141-3.708.87-8.449-2.838-10.59l-16.178-9.34 16.178-9.34c3.708-2.141 4.979-6.883 2.838-10.59z"/><path d="m289.653 391.175c-2.141-3.709-6.882-4.978-10.59-2.838l-16.178 9.34v-18.681c0-4.282-3.471-7.753-7.753-7.753s-7.753 3.47-7.753 7.753v18.681l-16.178-9.34c-3.708-2.141-8.45-.871-10.59 2.838-2.141 3.708-.87 8.449 2.838 10.59l16.178 9.34-16.178 9.34c-3.708 2.141-4.979 6.882-2.838 10.59 1.436 2.487 4.042 3.877 6.721 3.877 1.315 0 2.648-.335 3.869-1.04l16.178-9.34v18.681c0 4.282 3.471 7.753 7.753 7.753s7.753-3.471 7.753-7.753v-18.681l16.178 9.34c1.221.705 2.554 1.04 3.869 1.04 2.679 0 5.285-1.39 6.721-3.877 2.141-3.708.87-8.449-2.838-10.59l-16.178-9.34 16.178-9.34c3.708-2.141 4.979-6.883 2.838-10.59z"/><path d="m415.249 420.445-16.178-9.34 16.178-9.34c3.708-2.141 4.979-6.882 2.838-10.59-2.141-3.709-6.882-4.978-10.59-2.838l-16.178 9.34v-18.681c0-4.282-3.471-7.753-7.753-7.753s-7.753 3.47-7.753 7.753v18.681l-16.178-9.34c-3.708-2.141-8.45-.871-10.59 2.838-2.141 3.708-.87 8.449 2.838 10.59l16.178 9.34-16.178 9.34c-3.708 2.141-4.979 6.882-2.838 10.59 1.436 2.487 4.042 3.877 6.721 3.877 1.315 0 2.648-.335 3.869-1.04l16.178-9.34v18.681c0 4.282 3.471 7.753 7.753 7.753s7.753-3.471 7.753-7.753v-18.681l16.178 9.34c1.221.705 2.554 1.04 3.869 1.04 2.679 0 5.285-1.39 6.721-3.877 2.141-3.708.87-8.449-2.838-10.59z"/></g></g><path d="m415.29 251.865c0 35.28-28.6 63.89-63.89 63.89h-271.54c-44.1 0-79.86-35.76-79.86-79.86 0-41.91 32.27-76.28 73.32-79.59h.01c.42-.04.82-.07 1.24-.1 2.47-5.21 5.32-10.21 8.54-14.94 20.11-29.65 54.07-49.13 92.59-49.13 38.53 0 72.52 19.5 92.62 49.17 3.2 4.72 6.05 9.7 8.51 14.9.25.02.51.03.76.06 23.64 1.76 44.4 13.82 57.84 31.71h15.97c17.64 0 33.62 7.15 45.18 18.71s18.71 27.53 18.71 45.18z" fill="#eaf6ff"/><path d="m31.01 235.891c0-42.328 32.93-76.965 74.569-79.69 15.799-33.407 47.668-57.717 85.626-62.984-5.069-.703-10.243-1.08-15.505-1.08-44.67 0-83.222 26.196-101.131 64.064-41.639 2.725-74.569 37.362-74.569 79.69 0 44.108 35.756 79.864 79.864 79.864h31.01c-44.107 0-79.864-35.756-79.864-79.864z" fill="#d8ecfe"/><g><g><path d="m167.48 228.345c0 4.28-3.47 7.75-7.75 7.75s-7.75-3.47-7.75-7.75c0-40.34-34-71.94-77.41-71.94-.42 0-.84-.03-1.24-.1.42-.04.82-.07 1.24-.1 2.47-5.21 5.32-10.21 8.54-14.94 21.71 1.81 41.78 10.54 57.21 25.04 17.51 16.46 27.16 38.49 27.16 62.04z" fill="#d8ecfe"/></g></g><g><g><path d="m349.66 315.755h-42.75c-16.53-13.14-27.15-33.41-27.15-56.11 0-4.28 3.47-7.75 7.75-7.75s7.75 3.47 7.75 7.75c0 30.37 24.25 55.19 54.4 56.11z" fill="#d8ecfe"/></g></g><g><g><path d="m277.59 156.265c-.47.09-.95.14-1.45.14-17.95 0-34.6 7.23-46.86 20.35-1.53 1.64-3.59 2.46-5.67 2.46-1.89 0-3.79-.69-5.29-2.09-3.13-2.92-3.29-7.83-.37-10.95 13.22-14.14 31.25-22.97 50.37-24.87 3.2 4.72 6.05 9.7 8.51 14.9.25.02.51.03.76.06z" fill="#d8ecfe"/></g></g><g><g><path d="m373.53 92.285c-17.91.04-34.49 7.25-46.72 20.35-1.53 1.63-3.6 2.46-5.67 2.46-1.9 0-3.8-.7-5.29-2.09-3.13-2.93-3.3-7.83-.37-10.96 13.01-13.92 30.67-22.7 49.46-24.78 3.23 4.76 6.11 9.78 8.59 15.02z" fill="#b3dafe"/></g></g><g><g fill="#c4e2ff"><path d="m447.783 418.857c-4.282 0-7.753-3.471-7.753-7.753 0-4.282 3.471-7.753 7.753-7.753 4.282 0 7.753 3.471 7.753 7.753 0 4.282-3.471 7.753-7.753 7.753z"/><path d="m479.778 450.966c-4.282 0-7.753-3.471-7.753-7.753 0-4.282 3.471-7.753 7.753-7.753 4.282 0 7.753 3.471 7.753 7.753 0 4.282-3.471 7.753-7.753 7.753z"/><path d="m479.778 387.369c-4.282 0-7.753-3.471-7.753-7.753 0-4.282 3.471-7.753 7.753-7.753 4.282 0 7.753 3.471 7.753 7.753 0 4.282-3.471 7.753-7.753 7.753z"/><path d="m447.783 483.756c-4.282 0-7.753-3.471-7.753-7.753 0-4.282 3.471-7.753 7.753-7.753 4.282 0 7.753 3.471 7.753 7.753 0 4.282-3.471 7.753-7.753 7.753z"/><path d="m190.915 386.749c-4.282 0-7.753-3.471-7.753-7.753 0-4.282 3.471-7.753 7.753-7.753 4.282 0 7.753 3.471 7.753 7.753 0 4.282-3.471 7.753-7.753 7.753z"/><path d="m190.915 451.523c-4.282 0-7.753-3.471-7.753-7.753 0-4.282 3.471-7.753 7.753-7.753 4.282 0 7.753 3.471 7.753 7.753 0 4.282-3.471 7.753-7.753 7.753z"/><path d="m126.537 483.756c-4.282 0-7.753-3.471-7.753-7.753 0-4.282 3.471-7.753 7.753-7.753 4.282 0 7.753 3.471 7.753 7.753 0 4.282-3.471 7.753-7.753 7.753z"/><path d="m255.132 483.756c-4.282 0-7.753-3.471-7.753-7.753 0-4.282 3.471-7.753 7.753-7.753 4.282 0 7.753 3.471 7.753 7.753 0 4.282-3.471 7.753-7.753 7.753z"/><path d="m383.566 483.756c-4.282 0-7.753-3.471-7.753-7.753 0-4.282 3.471-7.753 7.753-7.753 4.282 0 7.753 3.471 7.753 7.753 0 4.282-3.471 7.753-7.753 7.753z"/><path d="m319.349 386.749c-4.282 0-7.753-3.471-7.753-7.753 0-4.282 3.471-7.753 7.753-7.753 4.282 0 7.753 3.471 7.753 7.753 0 4.282-3.471 7.753-7.753 7.753z"/><path d="m319.349 450.966c-4.282 0-7.753-3.471-7.753-7.753 0-4.282 3.471-7.753 7.753-7.753 4.282 0 7.753 3.471 7.753 7.753 0 4.282-3.471 7.753-7.753 7.753z"/><path d="m62.482 418.857c-4.282 0-7.753-3.471-7.753-7.753 0-4.282 3.471-7.753 7.753-7.753 4.282 0 7.753 3.471 7.753 7.753-.001 4.282-3.472 7.753-7.753 7.753z"/><path d="m30.487 450.966c-4.282 0-7.753-3.471-7.753-7.753 0-4.282 3.471-7.753 7.753-7.753 4.282 0 7.753 3.471 7.753 7.753-.001 4.282-3.471 7.753-7.753 7.753z"/><path d="m30.487 387.369c-4.282 0-7.753-3.471-7.753-7.753 0-4.282 3.471-7.753 7.753-7.753 4.282 0 7.753 3.471 7.753 7.753-.001 4.282-3.471 7.753-7.753 7.753z"/><path d="m62.482 483.756c-4.282 0-7.753-3.471-7.753-7.753 0-4.282 3.471-7.753 7.753-7.753 4.282 0 7.753 3.471 7.753 7.753-.001 4.282-3.472 7.753-7.753 7.753z"/></g></g></g></svg>