<svg id="Layer_1" enable-background="new 0 0 510.058 510.058" height="512" viewBox="0 0 510.058 510.058" width="512" xmlns="http://www.w3.org/2000/svg"><g><path d="m225.029 264.152c-62.543-32.251-105.41-97.509-105.41-172.595 0-39.86 11.367-63.724 18.182-91.068-18.875 14.206-72.151 35.222-109.04 100.681-18.797 33.354-28.732 71.339-28.732 109.848 0 61.493 25.15 119.552 68.693 161.443l147.25 62.452c3.655.131 6.17.147 9.057.135l15-89.99z" fill="#ffd92e"/><path id="XMLID_2122_" d="m417.107 255.757c-58.326 36.847-131.727 39.516-192.078 8.396v170.896c103.627-.429 188.332-70.605 214.516-162.5l10.76-37.764z" fill="#fcbe00"/><path id="XMLID_2119_" d="m270.367 67.906c-18.153 10.344-30.338 29.74-30.338 52.152 0 33.084 26.916 60 60 60h75l15-74.999-15-98.799c-46.675-20.306-99.85 11.034-104.662 61.646z" fill="#d5e7fa"/><path id="XMLID_2116_" d="m479.597 67.843c-4.795-39.839-46.945-63.82-83.562-47.808-6.224-5.804-13.321-10.432-21.007-13.775v173.798h75c33.16 0 60-26.835 60-60 .001-21.835-11.885-41.698-30.431-52.215z" fill="#c0dbf2"/><path id="XMLID_2113_" d="m171.029 510.058h-120c-27.99 0-51-22.625-51-51 0-18.043 9.55-34.503 24.568-43.619 4.847-32.226 38.622-51.829 69.052-39.885 38.165-33.241 97.952-9.915 103.931 39.965 14.723 8.982 24.449 25.086 24.449 43.539 0 28.121-22.879 51-51 51z" fill="#d5e7fa"/></g></svg>